<?xml version="1.0" encoding="UTF-8"?>
<svg id="_レイヤー_1" data-name="レイヤー 1" xmlns="http://www.w3.org/2000/svg" viewBox="0 0 16 16">
  <path d="m6.861,5.112c-.18-.238-.434-.431-.682-.605-.469-.327-.477-.315-.251-.878.057-.143.118-.285.164-.431.102-.324.033-.613-.221-.84-.268-.24-.577-.377-.929-.199-.187.095-.351.237-.518.366-.163.126-.317.263-.501.416-.161-.175-.28-.311-.407-.44-.151-.153-.296-.317-.466-.447-.289-.221-.623-.291-.952-.11-.311.17-.509.44-.52.817-.007.251.042.472.17.701.254.452.233.463-.198.817-.119.097-.245.188-.349.3-.265.283-.384.624-.367,1.013.026.612.535,1.01,1.141.878.235-.051.462-.139.672-.204.322.219.361.528.438.823.057.22.198.382.426.444.488.133.865-.037,1.054-.494.082-.197.106-.417.179-.618.058-.157.151-.301.239-.471.238.143.409.289.607.355.226.075.483.136.713.104.675-.094.962-.762.556-1.299Zm-1.926.002c-.264.017-.529.033-.829.052-.094.294-.191.6-.314.984-.371-.276-.154-.703-.427-.953-.246-.187-.622.249-.926-.137.191-.166.367-.318.574-.498-.083-.182-.167-.364-.266-.581.121-.03.234-.093.272-.062.426.349.835.304,1.258-.005.093-.068.222-.105.338-.117.069-.007.145.062.276.125-.171.216-.316.398-.487.614.204.138.39.264.576.39-.015.063-.031.126-.046.189Z" style="fill: #036eb7;"/>
  <path d="m15.051,5.172c-.256-.214-.55-.382-.917-.63.149-.312.29-.58.406-.859.168-.402.063-.91-.253-1.181-.306-.262-.652-.298-1.037-.164-.315.11-.506.333-.684.589-.115.165-.247.319-.364.469-.387-.149-.439-.492-.629-.722-.335-.405-.847-.418-1.197-.026-.369.412-.413.955-.128,1.455.115.201.375.331.324.666-.157.068-.329.124-.482.213-.264.152-.551.288-.765.497-.404.394-.312.956.178,1.243.357.209.741.286,1.154.161.191-.058.392-.08.604-.122.067.304.087.553.177.774.25.616.913.718,1.316.199.146-.188.235-.427.318-.655.071-.198.096-.412.151-.66.204.011.38.019.556.031.273.019.55.076.82.055.364-.029.641-.235.742-.598.084-.301-.075-.553-.29-.734Zm-1.772.321c-.209.026-.42.032-.593.043-.237.26-.049.668-.45.87-.09-.244-.168-.456-.252-.686-.092.004-.18.007-.268.013-.246.016-.484.484-.694.132-.151-.253.27-.34.438-.499.133-.127.274-.246.478-.427-.156-.304-.279-.546-.407-.794.35-.301.488.173.777.148.152-.133.326-.287.508-.447.276.354-.039.635.016.989.081.063.197.157.317.244.097.07.199.132.434.286-.145.063-.221.118-.303.128Z" style="fill: #036eb7;"/>
  <g>
    <path d="m13.194,10.262c-.461.126-.808.435-1.146.757-.104.099-.214.236-.439.058.168-.854.538-1.728.267-2.728-.166.063-.329.079-.414.169-.098.103-.144.267-.182.413-.226.864-.388,1.749-.676,2.592-.381,1.115-.697,1.816-1.636,2.207-.267.072-.385.164-.662.154.306-.471.766-.954.656-1.511-.107-.545-.458-1.015-1.015-1.145-.475-.111-1.011.018-1.333.4-.665.789-.302,2.07.452,2.549.006.004.013.006.02.009-.021.012-.043.023-.065.032-.248.105-.721-.004-.941-.181-.577-.464-.976-.966-1.14-1.633-.106-.747-.04-1.477.247-2.186.121-.299.327-.592.201-1.058-.378.299-.605.609-.71,1.003-.098.368-.17.744-.275,1.214-.396-.363-.443-.771-.543-1.139-.105-.385-.169-.782-.231-1.177-.061-.387.073-.796-.102-1.173-.334.057-.39.074-.391.164-.006.307-.034.619.01.92.126.855.324,1.692.566,2.527.453,1.558.94,2.062,1.377,2.6l.035.01c.044.051.09.1.138.148.381.373.937.692,1.483.672.4-.014.749-.17,1.051-.446.78.13,1.593-.112,2.352-.644.053-.037.095-.088.12-.144.277-.321.628-.673.898-1.211.211-.42.435-.696.901-.822.602-.163,1.145-.467,1.536-.976.084-.109.112-.261.203-.482-.265.024-.445.015-.611.06Zm-6.077,3.088c-.206-.275-.311-.635-.228-.974.076-.31.302-.545.612-.584.33-.042.639.109.783.417.18.388-.052.686-.287,1.081-.087.146-.256.366-.425.521-.013-.004-.272-.217-.455-.462Z" style="fill: #036eb7;"/>
    <path d="m1.94,11.42c-.018-.017-.056-.016-.085-.016-.029,0-.058.011-.145.03.003.43.167.824.411,1.159.268.37.602.701,1.054.855.271.092.543.103.734-.174-.004-.035.004-.078-.013-.094-.65-.589-1.302-1.177-1.956-1.762Z" style="fill: #036eb7;"/>
    <path d="m10.097,11.566c.043,0,.111-.066.123-.114.14-.552.062-1.057-.293-1.51-.097.048-.176.06-.194.099-.226.507-.175.997.132,1.454.036.053.152.071.231.071Z" style="fill: #036eb7;"/>
  </g>
</svg>